<svg xmlns="http://www.w3.org/2000/svg" viewBox="0 0 1000 1000" width="1000" height="1000"><g transform="translate(79.0 124.0) rotate(0.0 436.0 347.5) scale(0.9985251142807413 0.9976673246007536)"><svg width="873.288" height="696.625" viewBox="0 0 873.288 696.625"><g fill="#36f"><path d="M380.869 375.857h-5v-229.24l-25.059-17.542V30.042h5v96.43l25.059 17.542z"/><path d="M353.31 32.542c-6.893 0-12.5-5.607-12.5-12.5s5.607-12.5 12.5-12.5 12.5 5.607 12.5 12.5-5.607 12.5-12.5 12.5zm0-20c-4.136 0-7.5 3.365-7.5 7.5s3.364 7.5 7.5 7.5 7.5-3.365 7.5-7.5-3.364-7.5-7.5-7.5zm129.056 40.047c-6.893 0-12.5-5.607-12.5-12.5s5.607-12.5 12.5-12.5 12.5 5.607 12.5 12.5-5.607 12.5-12.5 12.5zm0-20c-4.136 0-7.5 3.365-7.5 7.5s3.364 7.5 7.5 7.5 7.5-3.365 7.5-7.5-3.364-7.5-7.5-7.5zm-24.733 523.768c-6.893 0-12.5-5.607-12.5-12.5s5.607-12.5 12.5-12.5 12.5 5.607 12.5 12.5-5.607 12.5-12.5 12.5zm0-20c-4.136 0-7.5 3.365-7.5 7.5s3.364 7.5 7.5 7.5 7.5-3.365 7.5-7.5-3.364-7.5-7.5-7.5zM601.422 25c-6.893 0-12.5-5.607-12.5-12.5S594.53 0 601.422 0s12.5 5.607 12.5 12.5-5.607 12.5-12.5 12.5zm0-20c-4.136 0-7.5 3.365-7.5 7.5s3.364 7.5 7.5 7.5 7.5-3.365 7.5-7.5-3.364-7.5-7.5-7.5z"/><path d="M479.866 50.089h5v180.429h-5zm95.841 191.706h-5v-93.13l28.192-28.192V20.018h5v102.526l-28.192 28.192zM12.5 328.244c-6.892 0-12.5-5.607-12.5-12.5s5.607-12.5 12.5-12.5 12.5 5.607 12.5 12.5-5.607 12.5-12.5 12.5zm0-20c-4.136 0-7.5 3.365-7.5 7.5s3.364 7.5 7.5 7.5 7.5-3.365 7.5-7.5-3.364-7.5-7.5-7.5zM23.777 436c-6.893 0-12.5-5.607-12.5-12.5s5.607-12.5 12.5-12.5 12.5 5.607 12.5 12.5-5.607 12.5-12.5 12.5zm0-20c-4.136 0-7.5 3.365-7.5 7.5s3.364 7.5 7.5 7.5 7.5-3.365 7.5-7.5-3.364-7.5-7.5-7.5z"/><path d="M22.5 313.244h271.133v5H22.5zM33.777 421h335.856v5H33.777zm165.434 209.241h-5v-61.345l26.922-22.217v-78.822h5v81.178l-26.922 22.217zm661.578-107.81c-6.893 0-12.5-5.607-12.5-12.5s5.607-12.5 12.5-12.5 12.5 5.607 12.5 12.5-5.607 12.5-12.5 12.5zm0-20c-4.136 0-7.5 3.365-7.5 7.5s3.364 7.5 7.5 7.5 7.5-3.365 7.5-7.5-3.364-7.5-7.5-7.5z"/><path d="M804.163 542.503h-184.53v-5h182.459l28.192-28.192H852.5v5h-20.144zM592.622 696.625h-5V591.157l-35.377-35.376V339.857h5v213.852l35.377 35.377zM35.077 100.179c-6.893 0-12.5-5.607-12.5-12.5s5.607-12.5 12.5-12.5 12.5 5.607 12.5 12.5-5.607 12.5-12.5 12.5zm0-20c-4.136 0-7.5 3.365-7.5 7.5s3.364 7.5 7.5 7.5 7.5-3.365 7.5-7.5-3.364-7.5-7.5-7.5zm161.634 572.562c-6.893 0-12.5-5.607-12.5-12.5s5.607-12.5 12.5-12.5 12.5 5.607 12.5 12.5-5.607 12.5-12.5 12.5zm0-20c-4.136 0-7.5 3.365-7.5 7.5s3.364 7.5 7.5 7.5 7.5-3.365 7.5-7.5-3.364-7.5-7.5-7.5zM142.81 201.693c-6.893 0-12.5-5.607-12.5-12.5s5.607-12.5 12.5-12.5 12.5 5.607 12.5 12.5-5.607 12.5-12.5 12.5zm0-20c-4.136 0-7.5 3.365-7.5 7.5s3.364 7.5 7.5 7.5 7.5-3.365 7.5-7.5-3.364-7.5-7.5-7.5z"/><path d="M296.925 113.359h-63.057l-23.18-23.18H45.077v-5h167.682l23.18 23.18h60.986zM151.58 187.923h186.693v5H151.58zm303.553 157.934h5v190h-5z"/></g></svg></g><g transform="translate(54.0 793.0) rotate(0.0 458.0 31.5) scale(1.00833194816117 1.0184781027207914)"><svg width="908.431" height="61.857" viewBox="0 0 908.431 61.857"><path d="M879.215 15.948h-850v22.778s420.601-3.004 560.763 0c155.44 3.331 250.887 5.277 289.237 23.131z" fill="#006"/><path d="M0 0h908.431v18.926H0z" fill="#fff"/></svg></g><g transform="translate(748.0 147.0) rotate(0.0 90.5 207.0) scale(0.9996078886182769 0.9976288242438263)"><svg width="181.071" height="414.984" viewBox="0 0 181.071 414.984"><g fill="#006"><path d="M120.566 197.339c7.161 1.008 14.178 3.1 20.718 6.017 8.632 3.85 22.349 10.941 21.577 21.609-.902 12.462-23.106 18.002-33.396 19.46-18.24 2.585-56.712-1.107-54.921-25.856.98-13.538 15.545-19.635 27.983-21.338 5.984-.819 12.062-.733 18.039.108z"/><path d="M59.555 217.659c26.043-1.557 52.345.499 78.094 4.326-22.64-2.285-45.397-3.54-68.078-1.413l-9.687 1.074zm64.062-72.9c6.842 1.319 13.492 3.674 19.644 6.799 8.119 4.125 20.973 11.618 19.71 21.846-1.475 11.948-23.111 16.197-33.085 17.099-17.678 1.599-54.519-3.829-51.59-27.557 1.602-12.98 15.916-18.137 27.968-19.17 5.799-.497 11.642-.118 17.353.983z"/><path d="M63.914 161.267c25.139-.195 50.351 3.082 74.94 8.041-21.677-3.283-43.513-5.587-65.44-4.616l-9.373.573-.127-3.998zm77.468-65.329c6.77 1.647 13.299 4.319 19.294 7.737 7.911 4.511 20.389 12.614 18.636 22.769-2.048 11.863-23.864 15.066-33.869 15.487-17.735.746-54.272-6.449-50.203-30.008 2.225-12.888 16.77-17.35 28.858-17.802 5.816-.217 11.635.443 17.285 1.817z"/><path d="M80.946 110.054c25.105.769 50.111 5.149 74.474 11.139-18.442-3.792-36.981-6.966-55.798-7.831-6.217-.501-12.449-.336-18.739-.309-2.008-.028-1.969-3.052.063-3zm78.757-63.846c4.46 2.651 8.533 5.963 12.067 9.675 4.664 4.899 11.812 13.315 8.416 19.997-3.967 7.806-20.143 5.188-27.339 3.257-12.756-3.422-37.186-16.552-29.307-32.054 4.31-8.48 15.587-8.355 24.269-5.983 4.177 1.141 8.171 2.894 11.894 5.107z"/><path d="M110.616 45.745c18.662 1.742 36.969 6.793 54.535 13.23-13.285-4.352-26.914-8.162-40.804-9.945-4.583-.784-9.231-.974-13.911-1.293-1.329-.114-1.165-2.117.181-1.992z"/><path d="M36.757 413.981c7.74-71.673 16.511-157.661 25.202-228.532 7.176-48.84 25.566-95.454 48.183-138.989-13.656 28.295-25.148 57.658-33.391 87.877-6.28 22.546-9.966 45.953-11.675 69.259-5.737 63.997-12.211 146.661-17.364 211.388l-10.954-1.002z"/><path d="m43.231 414.573-1.992-.182c.145-1.572 14.463-157.971 21.547-223.944 5.903-54.982 28.526-108.894 46.465-144.438l1.785.901c-17.863 35.396-40.39 89.068-46.262 143.751-7.082 65.957-21.399 222.34-21.543 223.912z"/></g><path d="M34.411 181.209c-5.199-3.029-10.477-5.084-15.558-6.198-6.705-1.47-17.522-3-18.754 6.249-1.439 10.805 13.24 27.373 20.228 34.133 12.386 11.983 40.031 29.685 42.889 8.227 1.563-11.738-7.656-24.646-16.112-32.767-4.068-3.907-8.353-7.115-12.692-9.644zm17.384-64.854c-3.41-3.063-6.901-5.09-10.286-6.127-4.467-1.368-11.697-2.684-12.786 7.148-1.272 11.486 8.131 28.623 12.639 35.588 7.99 12.345 26.079 30.318 28.606 7.506 1.382-12.478-4.454-25.892-9.91-34.257-2.625-4.025-5.416-7.302-8.262-9.858zm20.21-63.128c-3.306-4.068-6.887-6.981-10.525-8.756-4.802-2.343-12.734-5.119-15.719 5.793-3.487 12.748 4.077 33.783 7.926 42.454 6.823 15.37 24.049 38.9 30.973 13.583 3.788-13.849-.41-30.042-5.081-40.464-2.247-5.015-4.814-9.215-7.574-12.61zm36.343-46.268c-1.54-2.753-3.279-4.666-5.102-5.764-2.405-1.449-6.43-3.06-8.507 4.881-2.427 9.277.545 23.96 2.154 29.977 2.851 10.667 10.767 26.677 15.586 8.252 2.636-10.079 1.199-21.457-.757-28.688-.941-3.479-2.088-6.361-3.374-8.658z" fill="#36f"/></svg></g><g transform="translate(790.0 357.0) rotate(5.9794830329754625 60.0 137.5) scale(0.6627234620673659 0.6626761513696914)"><svg width="181.071" height="414.984" viewBox="0 0 181.071 414.984"><g fill="#006"><path d="M120.566 197.339c7.161 1.008 14.178 3.1 20.718 6.017 8.632 3.85 22.349 10.941 21.577 21.609-.902 12.462-23.106 18.002-33.396 19.46-18.24 2.585-56.712-1.107-54.921-25.856.98-13.538 15.545-19.635 27.983-21.338 5.984-.819 12.062-.733 18.039.108z"/><path d="M59.555 217.659c26.043-1.557 52.345.499 78.094 4.326-22.64-2.285-45.397-3.54-68.078-1.413l-9.687 1.074zm64.062-72.9c6.842 1.319 13.492 3.674 19.644 6.799 8.119 4.125 20.973 11.618 19.71 21.846-1.475 11.948-23.111 16.197-33.085 17.099-17.678 1.599-54.519-3.829-51.59-27.557 1.602-12.98 15.916-18.137 27.968-19.17 5.799-.497 11.642-.118 17.353.983z"/><path d="M63.914 161.267c25.139-.195 50.351 3.082 74.94 8.041-21.677-3.283-43.513-5.587-65.44-4.616l-9.373.573-.127-3.998zm77.468-65.329c6.77 1.647 13.299 4.319 19.294 7.737 7.911 4.511 20.389 12.614 18.636 22.769-2.048 11.863-23.864 15.066-33.869 15.487-17.735.746-54.272-6.449-50.203-30.008 2.225-12.888 16.77-17.35 28.858-17.802 5.816-.217 11.635.443 17.285 1.817z"/><path d="M80.946 110.054c25.105.769 50.111 5.149 74.474 11.139-18.442-3.792-36.981-6.966-55.798-7.831-6.217-.501-12.449-.336-18.739-.309-2.008-.028-1.969-3.052.063-3zm78.757-63.846c4.46 2.651 8.533 5.963 12.067 9.675 4.664 4.899 11.812 13.315 8.416 19.997-3.967 7.806-20.143 5.188-27.339 3.257-12.756-3.422-37.186-16.552-29.307-32.054 4.31-8.48 15.587-8.355 24.269-5.983 4.177 1.141 8.171 2.894 11.894 5.107z"/><path d="M110.616 45.745c18.662 1.742 36.969 6.793 54.535 13.23-13.285-4.352-26.914-8.162-40.804-9.945-4.583-.784-9.231-.974-13.911-1.293-1.329-.114-1.165-2.117.181-1.992z"/><path d="M36.757 413.981c7.74-71.673 16.511-157.661 25.202-228.532 7.176-48.84 25.566-95.454 48.183-138.989-13.656 28.295-25.148 57.658-33.391 87.877-6.28 22.546-9.966 45.953-11.675 69.259-5.737 63.997-12.211 146.661-17.364 211.388l-10.954-1.002z"/><path d="m43.231 414.573-1.992-.182c.145-1.572 14.463-157.971 21.547-223.944 5.903-54.982 28.526-108.894 46.465-144.438l1.785.901c-17.863 35.396-40.39 89.068-46.262 143.751-7.082 65.957-21.399 222.34-21.543 223.912z"/></g><path d="M34.411 181.209c-5.199-3.029-10.477-5.084-15.558-6.198-6.705-1.47-17.522-3-18.754 6.249-1.439 10.805 13.24 27.373 20.228 34.133 12.386 11.983 40.031 29.685 42.889 8.227 1.563-11.738-7.656-24.646-16.112-32.767-4.068-3.907-8.353-7.115-12.692-9.644zm17.384-64.854c-3.41-3.063-6.901-5.09-10.286-6.127-4.467-1.368-11.697-2.684-12.786 7.148-1.272 11.486 8.131 28.623 12.639 35.588 7.99 12.345 26.079 30.318 28.606 7.506 1.382-12.478-4.454-25.892-9.91-34.257-2.625-4.025-5.416-7.302-8.262-9.858zm20.21-63.128c-3.306-4.068-6.887-6.981-10.525-8.756-4.802-2.343-12.734-5.119-15.719 5.793-3.487 12.748 4.077 33.783 7.926 42.454 6.823 15.37 24.049 38.9 30.973 13.583 3.788-13.849-.41-30.042-5.081-40.464-2.247-5.015-4.814-9.215-7.574-12.61zm36.343-46.268c-1.54-2.753-3.279-4.666-5.102-5.764-2.405-1.449-6.43-3.06-8.507 4.881-2.427 9.277.545 23.96 2.154 29.977 2.851 10.667 10.767 26.677 15.586 8.252 2.636-10.079 1.199-21.457-.757-28.688-.941-3.479-2.088-6.361-3.374-8.658z" fill="#36f"/></svg></g><g transform="translate(49.0 641.0) rotate(0.0 78.5 78.5) scale(0.157 0.157)"><svg width="1000" height="1000" viewBox="0 0 1000 1000"><path d="M956.6 26.1H335.4c-24 0-43.4 19.5-43.4 43.4v274.7l14.9 20.6v550.6c0 24 4.5 43.4 28.5 43.4H638l23.1 15h295.4c24 0 43.4-19.5 43.4-43.4V69.5c.1-24-19.3-43.4-43.3-43.4z" fill="#006"/><path d="M355.9 737.9c-8.6 0-17.3-3-24.4-9.1L113.3 540.4C41.3 478.2 0 388 0 292.8v-128C0 88.3 62.2 26.1 138.7 26.1h202.7c20.6 0 37.3 16.7 37.3 37.3s-16.7 37.3-37.3 37.3H138.7c-35.3 0-64 28.7-64 64v128c0 73.4 31.9 143.1 87.4 191l218.2 188.4c15.6 13.5 17.3 37.1 3.9 52.7-7.4 8.7-17.8 13.1-28.3 13.1z" fill="#006"/><path d="M292 475.5v-143c0-62.7 14-121.4 76.2-113.6 39.3 5 85.5 34.6 127.9 117.2 22.8 44.4 55.5 76.4 107.8 314.9 38.4 175.4 57.2 322.9 57.2 322.9H329.3c-20.6 0-37.3-16.7-37.3-37.3v-240l14.9-16.8V560.2L292 515.4z" fill="#36f"/><path d="m292 510.1 46.4 69.7 24.6 42.9c6.3 11.1 7.9 24.3 4.3 36.5l-2.6 8.7c-7.3 24.4-32.8 38.5-57.4 31.7l-15.3-4.3z" fill="#006"/></svg></g><g transform="translate(755.0 527.0) rotate(0.0 60.5 138.0) scale(0.9933910759000041 0.999257797650296)"><svg width="121.805" height="276.205" viewBox="0 0 121.805 276.205"><path d="M118.805 90.165v143.806l3 5.391v22.079c0 8.149-6.607 14.763-14.763 14.763H14.763C6.607 276.205 0 269.591 0 261.442v-8.54l3-5.125V90.165z" fill="#006"/><path d="M121.805 0v239.363c-23.592 11.065-51.605 17.48-81.656 17.48-13.9 0-27.356-1.373-40.149-3.942V0z" fill="#36f"/></svg></g><g transform="translate(165.0 348.0) rotate(0.0 279.0 223.5) scale(0.9984647262810947 0.9994946626537813)"><svg width="558.858" height="447.226" viewBox="0 0 558.858 447.226"><path d="M368.228 445.115H190.63c0-.919 3.277-1.047 4.115-1.352.149-.061.311-.101.473-.122l9.751-1.777a22.953 22.953 0 0 0 7.683-2.419 22.562 22.562 0 0 0 3.311-2.088c3.588-2.71 2.298-6.433 3.825-10.751a22.905 22.905 0 0 0 1.203-5.251l1.919-17.529 2.599-5.227 4.652-42.556h98.533l6.376 58.294 2.443 3.803.351 3.217a22.905 22.905 0 0 0 1.203 5.251c.98 2.757-.926 5.271.953 7.433a22.613 22.613 0 0 0 3.555 3.318 22.237 22.237 0 0 0 3.305 2.088 22.91 22.91 0 0 0 7.683 2.419l8.4 1.777c.162.02.324.061.473.122.838.304 4.791.432 4.791 1.352z" fill="#36f"/><path d="M368.228 445.115H190.63c0-.919.574-1.723 1.412-2.027h174.773a2.152 2.152 0 0 1 1.412 2.027zm-30.714-26.977c-18.867-8.67-38.89-14.779-59.346-18.32-17.489-3.027-40.262-8.481-55.257 4.007l5.224-47.783h102.588zM.003 15.543v317.026l12.445 9.461h532.969l13.439-9.461V15.543C558.856 6.959 551.897 0 543.313 0H15.546C6.962 0 .003 6.959.003 15.543z" fill="#006"/><path d="M28.382 28.382V304.19h502.094V28.382z" fill="#36f"/><path d="M382.735 332.572H0v38.282c0 8.582 6.961 15.542 15.543 15.542h405.892l1.45-6.72-30.67-42.656-9.48-4.449z" fill="#fff"/><ellipse cx="279.43" cy="356.044" fill="#006" rx="17.738" ry="12.163"/><ellipse cx="281.405" cy="358.415" fill="#fff" rx="17.738" ry="12.163"/><path d="M366.815 443.087a1.903 1.903 0 0 0-.473-.122l-8.4-1.101a22.908 22.908 0 0 1-7.684-2.419 23.37 23.37 0 0 1-1.809-1.049c-.208-.133-.404-.282-.608-.423-4.013-2.748-7.121-6.703-8.774-11.368a10.57 10.57 0 0 1-8.323 4.055H228.112a10.57 10.57 0 0 1-8.245-3.957l-.079-.098a23.173 23.173 0 0 1-8.81 11.396c-.192.131-.377.271-.573.397a22.95 22.95 0 0 1-1.808 1.046 22.953 22.953 0 0 1-7.683 2.419l-8.4 1.101c-.163.02-.325.061-.473.122a2.152 2.152 0 0 0-1.412 2.027h177.598c0-.919-.575-1.723-1.412-2.027z" fill="#fff"/><path d="M535.207 21.625v288.646H371.254l-9.692-6.081L160.704 28.382l10.586-6.757zM284.498 444.213h-93.192a.676.676 0 0 0-.676.676v2.337h177.598v-2.337a.676.676 0 0 0-.676-.676h-83.055z" fill="#006"/><circle cx="54.32" cy="52.971" fill="#fff" r="6.529"/><circle cx="75.969" cy="52.971" fill="#fff" r="6.529"/><circle cx="97.619" cy="52.971" fill="#fff" r="6.529"/><path d="m58.346 179.64-15.139-15.138 15.139-15.138 3.535 3.535-11.603 11.603 11.603 11.603z" fill="#fff"/><path d="m502.759 179.64-3.535-3.535 11.603-11.603-11.603-11.603 3.535-3.535 15.139 15.138z" fill="#36f"/><path d="M155.374 234.857v57.831h197.812l1.854-2.946-38.088-52.302-5.882-2.583z" fill="#fff"/><path d="M304.773 193.707c6.469-6.988 12.194-14.664 17.001-22.886 10.477-17.919 16.617-38.346 17.757-59.071l.414-7.523-2.864-.518a122.201 122.201 0 0 1-57.651-27.373 122.206 122.206 0 0 1-42.86 23.718 122.104 122.104 0 0 1-14.792 3.655l-2.864.518.243 4.42 71.522 98.21a132.779 132.779 0 0 0 14.093-13.15zm-26.506-27.155a3.817 3.817 0 0 1-3.192-1.465l-26.049-33.342 6.021-4.704 17.334 22.188 5.39 6.898 28.353-44.419 6.441 4.111-30.134 47.209-1.125 1.762a3.821 3.821 0 0 1-3.039 1.761z" fill="#006"/><g fill="#36f"><path d="m312.565 115.82-6.441-4.111-28.353 44.419-5.39-6.898-17.334-22.188-6.021 4.704 26.049 33.342a3.822 3.822 0 0 0 6.231-.296l1.125-1.762 30.134-47.209zm90.92 119.037H311.07l42.116 57.831h50.299zm-20.75 97.715h-.501l39.201 53.825h121.881c8.582 0 15.542-6.96 15.542-15.542v-38.282H382.734zm-170.21-66.062 8.55 4.725-2.925 5.101-8.7-5.101.075 9.676h-5.7l.075-9.601-8.625 5.025-3-5.101 8.625-4.725-8.625-4.725 3-5.176 8.625 5.101-.075-9.601h5.7l-.075 9.676 8.7-5.176 2.925 5.176-8.55 4.725zm48.503 0 8.55 4.725-2.925 5.101-8.7-5.101.075 9.676h-5.7l.075-9.601-8.625 5.025-3-5.101 8.625-4.725-8.625-4.725 3-5.176 8.625 5.101-.075-9.601h5.7l-.075 9.676 8.7-5.176 2.925 5.176-8.55 4.725zm48.503 0 8.55 4.725-2.925 5.101-8.7-5.101.075 9.676h-5.7l.075-9.601-8.625 5.025-3-5.101 8.625-4.725-8.625-4.725 3-5.176 8.625 5.101-.075-9.601h5.7l-.075 9.676 8.7-5.176 2.925 5.176-8.55 4.725z"/></g><path d="m358.034 266.51 8.55 4.725-2.925 5.101-8.7-5.101.075 9.676h-5.7l.075-9.601-8.625 5.025-3-5.101 8.625-4.725-8.625-4.725 3-5.176 8.625 5.101-.075-9.601h5.7l-.075 9.676 8.7-5.176 2.925 5.176-8.55 4.725zm-20.598-164.769a120.237 120.237 0 0 1-56.707-26.925l-1.3-1.112-1.3 1.112c-12.378 10.589-26.563 18.438-42.158 23.33a120.523 120.523 0 0 1-14.549 3.595l-4.602.832.511 9.286c1.158 21.043 7.392 41.781 18.027 59.971 10.546 18.038 25.411 33.546 42.989 44.85l1.082.696 1.082-.696a132.145 132.145 0 0 0 11.423-8.266 135.13 135.13 0 0 0 14.306-13.348c6.621-7.153 12.428-14.971 17.259-23.235 10.637-18.192 16.87-38.93 18.027-59.971l.511-9.287-4.602-.832z" fill="#006"/><path d="M279.429 214.998c-17.318-11.136-31.952-26.402-42.344-44.177-10.477-17.919-16.617-38.346-17.757-59.072l-.171-3.102-1.152-4.582-4.898-6.472-2.902-1.239a3.463 3.463 0 0 0-1.305 2.894l.717 13.034a141.05 141.05 0 0 0 65.007 111.187l2.937 1.873a3.475 3.475 0 0 0 3.735 0l2.937-1.873a140.834 140.834 0 0 0 12.184-8.734l1.375-2.858-4.38-5.014-2.732-.006a129.83 129.83 0 0 1-11.25 8.141z" fill="#fff"/><path d="M310.615 201.73a141.047 141.047 0 0 0 38.626-89.447l.717-13.034a3.474 3.474 0 0 0-2.85-3.609l-8.294-1.5a112.404 112.404 0 0 1-53.464-25.538l-3.651-3.153a3.473 3.473 0 0 0-4.54 0l-3.651 3.153A112.39 112.39 0 0 1 230.5 91.721c-3.436.968-6.923 1.78-10.454 2.419l-8.296 1.5a3.438 3.438 0 0 0-1.545.715l8.953 12.293-.243-4.42 2.864-.518a121.778 121.778 0 0 0 14.792-3.655 122.206 122.206 0 0 0 42.86-23.718 122.215 122.215 0 0 0 57.651 27.373l2.864.518-.414 7.523c-1.14 20.725-7.28 41.152-17.757 59.071-4.807 8.222-10.532 15.898-17.001 22.886a132.779 132.779 0 0 1-14.093 13.15l5.737 7.878a141.311 141.311 0 0 0 14.198-13.006z" fill="#36f"/><path d="m312.565 115.82-6.441-4.111-28.353 44.419-5.39-6.898-17.334-22.188-6.021 4.704 26.049 33.342a3.822 3.822 0 0 0 6.231-.296l1.125-1.762 30.134-47.209z" fill="#36f"/></svg></g></svg>